<?xml version="1.0" encoding="utf-8"?>
<!-- Generator: Adobe Illustrator 19.1.0, SVG Export Plug-In . SVG Version: 6.00 Build 0)  -->
<svg version="1.1" id="Layer_1" xmlns="http://www.w3.org/2000/svg" xmlns:xlink="http://www.w3.org/1999/xlink" x="0px" y="0px"
	 viewBox="0 0 120.8 67.1" enable-background="new 0 0 120.8 67.1" xml:space="preserve">
<g>
	<path fill="#FFFFFF" d="M31,64.8c0,1.2,0.2,1.7,0.9,1.7v0.4h-5.1v-0.4c0.7,0,0.9-0.5,0.9-1.6v-6.5c0-1.1-0.2-1.6-0.9-1.6v-0.4h5.1
		v0.4c-0.7,0-0.9,0.5-0.9,1.6v0.9h3.2v-0.9c0-1.1-0.3-1.6-0.9-1.6v-0.4h5.1v0.4c-0.7,0-0.9,0.5-0.9,1.6v6.5c0,1.1,0.2,1.6,0.9,1.6
		v0.4h-5.1v-0.4c0.7,0,0.9-0.5,0.9-1.7v-4.5H31V64.8z"/>
	<path fill="#FFFFFF" d="M43.9,65.7c-1.2-1.1-1.7-2.6-1.7-4.1c0-3.4,2.6-5.5,5.9-5.5c1.4,0,3,0.4,4.1,1.4c1.2,1.1,1.7,2.7,1.7,4.2
		c0,1.4-0.5,3-1.6,4c-1.1,1-2.8,1.5-4.2,1.5C46.7,67.1,45,66.7,43.9,65.7z M50.2,64.3c0.3-0.6,0.3-1.4,0.3-2.1c0-1-0.1-2.1-0.4-3
		c-0.4-0.9-1.1-1.8-2.1-1.8c-0.8,0-1.4,0.7-1.7,1.4c-0.3,0.7-0.4,1.5-0.4,2.2c0,1,0.1,2.1,0.5,3c0.4,0.9,1.1,1.8,2.1,1.8
		C49.2,65.7,49.9,65.1,50.2,64.3z"/>
	<path fill="#FFFFFF" d="M64.2,64.8c0,1.2,0.2,1.7,1.3,1.7v0.4h-5.8v-0.4c1,0,1.3-0.5,1.3-1.7v-7.3c-1.5,0-2.6,0.8-3,2.3l-0.3-0.1
		l0.8-3.7c0.1,0.2,0.3,0.2,0.6,0.3c0.3,0,0.5,0,0.7,0h5.7c0.4,0,1.2,0.1,1.4-0.3l0.7,3.7l-0.3,0.1c-0.5-1.4-1.4-2.2-3-2.3V64.8z"/>
	<path fill="#FFFFFF" d="M79.7,67.1c-0.1-0.1-0.3-0.2-0.4-0.2c-0.2,0-0.3,0-0.5,0h-7.9v-0.4c0.7,0,0.9-0.5,0.9-1.6v-6.5
		c0-1.1-0.2-1.6-0.9-1.6v-0.4h7.3c0.4,0,1,0.1,1.3-0.3l0.8,3.7l-0.4,0.1c-0.5-1.6-1.8-2.5-3.4-2.5c-1.6,0-1.5,0.6-1.5,1.9v0.5h0.5
		c1.1,0,2.1,0.1,2.1-1.3l0.3,0l0.7,4.1l-0.3,0c-0.2-0.4-0.4-0.9-0.8-1.2c-0.6-0.6-1.3-0.5-2.1-0.5H75v3.5c0,1.1,0.3,1.5,1.6,1.5
		c2,0,3.4-1.2,4.2-3l0.3,0.1L79.7,67.1z"/>
	<path fill="#FFFFFF" d="M93,67.1c-0.1-0.2-0.3-0.2-0.5-0.2c-0.2,0-0.4,0-0.6,0h-7.3v-0.4c0.7,0,0.9-0.5,0.9-1.6v-6.5
		c0-1.1-0.2-1.6-0.9-1.6v-0.4h5l0,0.4c-0.7,0-0.9,0.5-0.9,1.6v6.5c0,0.5,0.1,1,1.2,1c1.9,0,3.3-1.6,4-3.3l0.3,0.1L93,67.1z"/>
</g>
<g>
	<path fill="#AF986E" d="M80,6.4c-2.7,1.7-3.6,4.4-3.6,7.4c-0.1,2,0.1,4,0.2,6c0,0.2,0.1,0.5,0.2,1c4-6.6,9-11.8,15.7-15.1
		c0.1,0.1,0.2,0.1,0.3,0.2c-0.1,0.3-0.1,0.7-0.2,0.8c-2.8,1.8-3.9,4.6-4.1,7.7c-0.3,4.1,0,8.3-0.3,12.4c-0.5,7-3,13.1-8.5,17.8
		c-0.1,0.1-0.2,0.1-0.6,0.4c0.1-0.6,0-1,0.1-1.2c3.5-4,4.7-8.8,4.8-13.9c0-2.3-0.1-4.7,0-7c0.1-3.4,0.4-6.7,1.7-9.9
		c0.4-0.9,0.8-1.7,1.4-2.8c-0.4,0.2-0.6,0.3-0.7,0.5c-3.6,3.1-6.7,6.6-9,10.8c-0.5,0.9-0.4,1.7-0.3,2.6c0.9,4.9,0.7,9.7-0.7,14.5
		c-0.3,1.1-1,2.1-1.6,3.1c-0.5,0.8-1.3,1.2-2.3,1c-1-0.2-1.2-1-1.4-1.8c-0.5-2.4-0.1-4.8,0.5-7.2c0.4-1.6,1-3.2,1.5-4.8
		c0.2-0.7,0.3-1.5,0.2-2.2c-0.7-4.4-1.2-8.8,0.1-13.2c0.5-1.5,1.3-3,1.9-4.6c-0.8,0.7-1.7,1.4-2.5,2.2c-3,3.1-4.6,7-5.6,11.1
		c-1.1,4.1-2,8.3-3.1,12.5c-1,3.7-2.7,6.9-5.3,9.7c-0.4,0.4-0.7,0.8-0.9,0.2c1.2-1.7,2.5-3.3,3.5-5c1.7-2.7,2.4-5.8,3.1-8.9
		c1-4.6,1.8-9.2,3.6-13.6C70.3,11.7,73.7,7.9,79,6C79.7,5.8,79.7,5.8,80,6.4 M73.8,30c-0.1,0-0.2-0.1-0.4-0.1c-0.3,1-0.7,2-1,3.1
		c-0.6,2.3-1.1,4.7-0.7,7.2c0.1,0.7,0.2,1.6,1.1,1.6c0.3,0,0.8-0.9,0.9-1.4C74.6,36.9,74.2,33.4,73.8,30"/>
	<path fill="#AF986E" d="M28.6,6.3c-1.4,1.2-2.9,2.3-4.2,3.5c-2.3,2.2-3.9,5-4.7,8.1c-1.1,4-1.9,8.1-2.9,12.3c2.3,0.1,4-0.7,5.5-2
		c2.6-2.2,3.9-5.2,5.1-8.3c1.3-3.1,2.6-6.2,4.1-9.2c0.6-1.2,1.6-2.3,2.6-3.3c1.1-1,2.5-1.6,4.1-1.1c1.5,0.5,2.2,1.9,1.5,3.5
		c-0.2-0.3-0.4-0.5-0.4-0.7c-0.1-1.7-1.3-2.5-3-2c-1.3,0.4-2.3,1.3-3.1,2.4C31.4,12,30.2,15,29,18c-1,2.4-2,4.8-3.2,7.2
		c-1.2,2.3-3.1,4.1-5.6,5.2c-0.1,0.1-0.2,0.2-0.5,0.3c0.3,0.3,0.5,0.5,0.8,0.7c1.5,1.1,2.2,2.7,2.4,4.4c0.2,1.5,0.2,3.1,0.4,4.6
		c0.3,2,1.6,3.1,3.6,3.2c0.3,0,0.6,0.1,0.9,0.2c0,0.1,0,0.2,0,0.3c-0.3,0.1-0.6,0.3-0.9,0.3c-2.2-0.1-4.2-1.2-4.5-4.1
		c-0.1-1.7-0.2-3.4-0.4-5.1c-0.3-2.1-1.9-3.8-4-4.2c-1.1-0.2-1.2-0.1-1.5,0.9c-0.6,2.9-1.5,5.7-3.3,8.1c-2,2.7-4.7,4.1-8.1,4.3
		c-2.1,0.1-3.8-0.9-5.2-2.3C0,41.9,0,41.6,0,41.4c0.2,0,0.6,0,0.7,0.1c1,0.9,2,1.7,3.4,1.9c1.7,0.2,3-0.6,4.3-1.7
		c2.3-2,3.3-4.7,3.9-7.6c0.7-3.7,1.3-7.4,1.9-11.1c0.8-5.1,3.4-9.2,7.3-12.5c0.2-0.2,0.4-0.3,0.6-0.5c0.1-0.1,0.1-0.2,0.2-0.4
		c-0.9,0.2-1.7,0.5-2.5,0.5c-1,0.1-2.1,0.1-3.1-0.1c-2-0.5-3.9-0.9-5.5,0.9c-0.1,0.1-0.5,0-0.8,0c1.2-2.6,4.4-4.2,7.3-3.6
		c1.1,0.2,2.1,0.6,3.2,0.9c1.3,0.4,2.5,0.2,3.7-0.3c1.2-0.6,2.3-1.2,3.4-1.8C28.3,5.8,28.6,5.8,28.6,6.3"/>
	<path fill="#AF986E" d="M95.4,44.8c-0.9-0.5-0.5-0.8-0.3-1.2c1.1-1.6,2.3-3.1,3.3-4.7c1.4-2.3,1.9-5,2.4-7.6c0.1-0.6,0-1-0.8-1.2
		c-1.4-0.4-2.7-1-4-1.6c-0.2-0.1-0.3-0.5-0.5-0.7c0.3,0,0.6,0,0.8,0.1c1.3,0.5,2.6,1,3.8,1.6c0.7,0.3,0.9,0,1-0.6c0-0.2,0-0.4,0-0.6
		c0.1-1,0.4-2.1,0.1-2.9c-0.3-0.7-1.5-0.9-2.3-1.4c-4-2.5-5.3-8.2-2.8-12.6c2.3-4.2,7.4-7.1,12.8-6.4c3,0.4,5.7,1.2,8,3.3
		c3.1,2.8,4.1,6.4,3.7,10.4c-0.4,3.4-1.9,6.3-4.6,8.5c-2.6,2-5.5,3.2-8.8,3.5c-0.7,0.1-1.5,0-2.2,0.2c-0.3,0.1-0.7,0.5-0.8,0.8
		c-1.1,3.1-2.6,6.1-4.7,8.7C98.3,42,96.8,43.3,95.4,44.8 M104.8,30.2c1.2-0.1,2.1-0.1,3.1-0.3c3.8-0.5,7.1-2.1,9.5-5.1
		c4.6-5.6,3.4-15.3-4.6-18.1c-0.6-0.2-1.1-0.2-1.6,0.2c-2.3,1.5-3.4,3.7-4.1,6.3c-1,3.6-1.1,7.3-1.3,11c0,0.5,0.3,0.6,0.8,0.5
		c2.4-0.3,4.4-1.3,6-3.1c0.4-0.4,0.7-0.5,1,0.1c-1.8,2.2-4,3.4-6.8,3.7c-0.4,0-0.9,0.2-1,0.4C105.4,27.2,105.2,28.6,104.8,30.2
		 M110.5,6.3c-0.3-0.2-0.4-0.3-0.6-0.3c-5-0.9-10.3,1-12.9,5.7c-2.2,3.7-1.5,8.2,1.5,11c0.9,0.8,1.8,1.4,3.1,1.5
		C102.3,17,103.6,10.2,110.5,6.3"/>
	<path fill="#AF986E" d="M53.7,29.2c1.4-0.4,2.4-1.2,3.3-2.2c0.4-0.4,0.6-0.5,1,0.1c-1.1,1.3-2.3,2.3-3.9,2.9
		c-0.6,0.2-0.8,0.5-1,1.1c-1.6,4.9-4.1,9.3-8.1,12.8c-0.4,0.3-0.7,0.6-1.1,0.9c-0.5-0.3-0.6-0.6-0.2-1c3.3-3.4,5-7.6,5.8-12.3
		c0.1-0.5,0-0.9-0.6-1c-2.2-0.5-4.5-1-6.7-1.5c-1.2-0.3-1.3-0.1-1.6,1c-1.4,5.3-3.9,10.1-8,13.9c-0.3,0.3-0.6,0.5-0.8,0.8
		c-0.6-0.5-0.5-0.5,0-1c1.5-1.7,3-3.4,4.4-5.2c2-2.8,3.1-6,4-9.5c-1.6-0.2-2.9,0.5-4.1,1.3c-0.3,0.2-0.5,0.5-0.8,0.8
		c-0.2,0.1-0.5,0.1-0.7,0.1c1.2-1.8,3-2.7,5-3c0.7-0.1,0.9-0.3,1-0.9c0.9-4.3,2.3-8.4,5-11.8c3.7-4.7,8.3-8.1,14.2-9.5
		c0.3-0.1,0.6,0.1,1,0.2c-0.2,0.3-0.3,0.6-0.5,0.8c-2.7,1.7-4,4.4-4.6,7.3c-0.5,2.4-0.7,4.9-1,7.4c-0.3,2.4-0.5,4.8-0.7,7.2
		C53.6,28.8,53.7,28.9,53.7,29.2 M49.6,29.9c0.1-1.5,0.2-2.8,0.4-4c0.3-2.6,0.5-5.3,1-7.8c0.8-4,2.5-7.6,5.7-10.3
		c0.1,0,0-0.1,0.1-0.2C49.9,8.9,42.2,18.8,41,27.9C43.8,28.6,46.6,29.2,49.6,29.9"/>
	<path fill="#AF986E" d="M55.5,1.5c0,0.9-0.6,1.5-1.4,1.6c-0.9,0-1.5-0.6-1.5-1.5c0-0.8,0.6-1.5,1.5-1.5C54.9,0,55.5,0.7,55.5,1.5"
		/>
	<path fill="#AF986E" d="M63.4,1.6c0,0.8-0.7,1.5-1.5,1.5c-0.8,0-1.5-0.8-1.5-1.5C60.4,0.8,61.2,0,62,0C62.8,0,63.5,0.8,63.4,1.6"/>
</g>
<g>
</g>
<g>
</g>
<g>
</g>
<g>
</g>
<g>
</g>
<g>
</g>
</svg>
